# xmcd CD database file
# Copyright (C) 1995-1998 Ti Kan
#
# Track frame offsets:
#	182
#	20437
#	40277
#	57857
#	71252
#	99227
#	121640
#	146507
#	172097
#	179310
#	194527
#	216540
#	247465
#	265232
#
# Disc length: 3910 seconds
#
# Revision: 34495340
# Submitted via:  TitleTrack v2.1
#
DISCID=d10f440e
DTITLE=Nine Inch Nails / The Downward Spiral
TTITLE0=mr. self destruct
TTITLE1=piggy
TTITLE2=heresy
TTITLE3=march of the pigs
TTITLE4=closer
TTITLE5=ruiner
TTITLE6=the becoming
TTITLE7=i do not want this
TTITLE8=big man with a gun
TTITLE9=a warm place
TTITLE10=eraser
TTITLE11=reptile
TTITLE12=the downward spiral
TTITLE13=hurt
EXTD=\nYEAR: 2000  ID3G:  17
EXTT0= you need to know\ni drag you down i use you up\nmr self destruct
EXTT1=re
EXTT2=re\nburning with your god in humility\nwill you die for this?\n\n
EXTT3=\nnow they all sleep soundly\nand everything is all right
EXTT4=i stay alive
EXTT5=e nothing can hurt me\nyou didn't hurt me nothing can stop me now
EXTT6=n this noise inside my head
EXTT7=\ni want to do something that matters
EXTT8=ing gun
EXTT9=
EXTT10=reak you\nlose me\nhate me\nsmash me\nerase me\n[kill me] [8x]
EXTT11=mpure\n\n
EXTT12=ue\nall fuzzy\nspilling out of my head\n\n
EXTT13=ay
PLAYORDER=
